<?xml version="1.0" encoding="utf-8"?>
<!-- Generator: Adobe Illustrator 21.0.0, SVG Export Plug-In . SVG Version: 6.00 Build 0)  -->
<svg version="1.1" xmlns="http://www.w3.org/2000/svg" xmlns:xlink="http://www.w3.org/1999/xlink" x="0px" y="0px"
	 viewBox="0 0 288 288" style="enable-background:new 0 0 288 288;" xml:space="preserve">
<style type="text/css">
	.st0{fill:#FFFFFF;}
</style>
<g>
	<g>
		<g>
			<path class="st0" d="M2.3,27c92.7,0,185.5,0,278.2,0c0,78.5,0,157,0,235.5c-92.7,0-185.5,0-278.2,0C2.3,184,2.3,105.5,2.3,27z
				 M238.4,155.8c6.1-10.5,12-20.8,18.1-31c1.6-2.8,1.1-4.4-1.7-5.5c-7.7-3.2-15.2-7-23.1-9.4c-20.7-6.3-41.5-6.9-62.1,0.4
				c-18.5,6.5-33.9,22.4-32.6,45.8c0.6,10.5,4.9,18.6,13.2,24.8c7.4,5.4,16.1,7.7,24.7,10.4c7,2.2,14.1,4.2,21,6.7
				c4.5,1.6,6,4.7,5.5,8.7c-0.5,3.4-2.9,6.1-7.2,6.4c-4.7,0.3-9.6,0.6-14.1-0.5c-13.3-3.2-25.8-8.4-36.4-17.4
				c-1.7-1.4-2.8-1.4-4,0.8c-5.2,9.7-10.4,19.3-15.9,28.8c-1.5,2.6-0.9,4,1.5,5.5c27,16.6,55.8,22.5,86.7,14.2
				c18.9-5.1,32.3-16.5,35.7-36.9c2-12,0.3-23-8.7-32.3c-8.7-9-20.3-11.7-31.4-15.6c-6.6-2.3-13.2-4.4-19.6-7
				c-2.9-1.2-4.4-4.1-4-7.4c0.4-3.2,2.8-5,5.7-5.1c4.7-0.1,9.5-0.1,14,1C215.7,144.1,227.1,149.1,238.4,155.8z M45,79.3
				c1.8,8.5,3.4,16.6,5.1,24.7c4.1,19.1,8.3,38.2,12.4,57.4c3.6,17.1,7.2,34.1,10.8,51.2c0.5,2.3,1.5,3.4,4.1,3.4
				c13.5-0.1,27,0,40.5-0.2c1.5,0,3.6-1.3,4.3-2.6c5.3-9.7,10.5-19.6,15.5-29.4c0.5-1,0.3-2.8-0.2-3.9c-2-4-4.9-7.6-6.3-11.8
				c-6.6-20.7,1.8-44,19.6-56.6c8.9-6.2,18.7-9.8,29.1-12.3c1.8-0.4,3.7-1.9,4.7-3.5c5.3-8.7,10.3-17.7,15.3-26.5
				c2.4-4.2,4.6-8.4,7-12.7c-0.9-0.3-1.3-0.5-1.6-0.5c-13.9,0-27.7-0.1-41.6,0.1c-1.2,0-2.9,1.4-3.5,2.5c-2.7,4.9-5,10-7.5,15.1
				c-14.7,30.4-29.3,60.8-44,91.3c-0.4,0.9-1.1,1.6-1.8,2.5c-0.5-0.7-0.8-0.9-0.8-1.1c-2.2-14.5-4.4-29.1-6.6-43.6
				c-2-13.4-4.2-26.8-6.1-40.3c-0.4-3-1.8-3.5-4.4-3.5c-13.5,0.1-27,0-40.5,0.1C47.5,78.9,46.4,79.1,45,79.3z"/>
			<path d="M238.4,155.8c-11.3-6.7-22.7-11.7-34.9-14.6c-4.5-1.1-9.3-1.1-14-1c-2.9,0.1-5.2,1.9-5.7,5.1c-0.5,3.3,1,6.2,4,7.4
				c6.4,2.6,13.1,4.8,19.6,7c11.1,3.9,22.7,6.6,31.4,15.6c9,9.2,10.7,20.3,8.7,32.3c-3.4,20.4-16.7,31.8-35.7,36.9
				c-30.9,8.3-59.7,2.5-86.7-14.2c-2.3-1.4-3-2.8-1.5-5.5c5.4-9.5,10.7-19.2,15.9-28.8c1.2-2.2,2.3-2.2,4-0.8
				c10.6,9,23.1,14.2,36.4,17.4c4.5,1.1,9.4,0.8,14.1,0.5c4.3-0.3,6.7-2.9,7.2-6.4c0.5-4-1-7.1-5.5-8.7c-6.9-2.5-14-4.5-21-6.7
				c-8.5-2.7-17.3-4.9-24.7-10.4c-8.4-6.2-12.6-14.3-13.2-24.8c-1.3-23.4,14.1-39.3,32.6-45.8c20.6-7.3,41.5-6.7,62.1-0.4
				c7.9,2.4,15.4,6.2,23.1,9.4c2.7,1.1,3.3,2.7,1.7,5.5C250.4,135,244.5,145.2,238.4,155.8z"/>
			<path d="M45,79.3c1.4-0.1,2.5-0.3,3.6-0.3c13.5,0,27,0,40.5-0.1c2.6,0,4,0.4,4.4,3.5c1.9,13.5,4,26.9,6.1,40.3
				c2.2,14.5,4.4,29.1,6.6,43.6c0,0.2,0.3,0.4,0.8,1.1c0.7-0.9,1.4-1.7,1.8-2.5c14.7-30.4,29.3-60.8,44-91.3
				c2.4-5.1,4.8-10.1,7.5-15.1c0.6-1.2,2.3-2.5,3.5-2.5c13.9-0.2,27.7-0.1,41.6-0.1c0.3,0,0.7,0.2,1.6,0.5c-2.4,4.3-4.7,8.5-7,12.7
				c-5,8.9-10,17.8-15.3,26.5c-0.9,1.6-2.9,3.1-4.7,3.5c-10.4,2.5-20.2,6-29.1,12.3c-17.9,12.5-26.3,35.9-19.6,56.6
				c1.3,4.2,4.3,7.8,6.3,11.8c0.5,1.1,0.8,2.9,0.2,3.9c-5,9.9-10.1,19.7-15.5,29.4c-0.7,1.3-2.8,2.6-4.3,2.6
				c-13.5,0.2-27,0.1-40.5,0.2c-2.5,0-3.6-1.1-4.1-3.4c-3.6-17.1-7.1-34.1-10.8-51.2c-4.1-19.1-8.3-38.2-12.4-57.4
				C48.4,95.9,46.7,87.7,45,79.3z"/>
		</g>
	</g>
</g>

</svg>
